<svg xmlns="http://www.w3.org/2000/svg" viewBox="0 0 800 600" font-family="sans-serif"><defs><linearGradient id="sky" x1="0" y1="0" x2="0" y2="1">
      <stop offset="0" stop-color="#c8f0d0"/><stop offset="1" stop-color="#eefcf1"/>
    </linearGradient></defs>
    <rect width="800" height="600" fill="url(#sky)"/><circle cx="680" cy="90" r="42" fill="#ffd54f"/><line x1="680" y1="90" x2="680" y2="90" transform="rotate(0 680 90) translate(0 -64)" stroke="#ffd54f" stroke-width="7" stroke-linecap="round" stroke-dasharray="14 100"/><line x1="680" y1="90" x2="680" y2="90" transform="rotate(45 680 90) translate(0 -64)" stroke="#ffd54f" stroke-width="7" stroke-linecap="round" stroke-dasharray="14 100"/><line x1="680" y1="90" x2="680" y2="90" transform="rotate(90 680 90) translate(0 -64)" stroke="#ffd54f" stroke-width="7" stroke-linecap="round" stroke-dasharray="14 100"/><line x1="680" y1="90" x2="680" y2="90" transform="rotate(135 680 90) translate(0 -64)" stroke="#ffd54f" stroke-width="7" stroke-linecap="round" stroke-dasharray="14 100"/><line x1="680" y1="90" x2="680" y2="90" transform="rotate(180 680 90) translate(0 -64)" stroke="#ffd54f" stroke-width="7" stroke-linecap="round" stroke-dasharray="14 100"/><line x1="680" y1="90" x2="680" y2="90" transform="rotate(225 680 90) translate(0 -64)" stroke="#ffd54f" stroke-width="7" stroke-linecap="round" stroke-dasharray="14 100"/><line x1="680" y1="90" x2="680" y2="90" transform="rotate(270 680 90) translate(0 -64)" stroke="#ffd54f" stroke-width="7" stroke-linecap="round" stroke-dasharray="14 100"/><line x1="680" y1="90" x2="680" y2="90" transform="rotate(315 680 90) translate(0 -64)" stroke="#ffd54f" stroke-width="7" stroke-linecap="round" stroke-dasharray="14 100"/><g transform="translate(180 110) scale(0.9)" fill="#ffffff" opacity="0.95">
      <ellipse cx="0" cy="0" rx="52" ry="26"/>
      <ellipse cx="-38" cy="8" rx="34" ry="20"/>
      <ellipse cx="40" cy="8" rx="36" ry="20"/>
      <ellipse cx="4" cy="-16" rx="30" ry="20"/>
    </g><rect x="0" y="430" width="800" height="170" fill="#a5d6a7"/><path d="M0 530 Q 400.0 370 800 530 L 800 600 L 0 600 Z" fill="#8fce91"/><g transform="translate(120 590) scale(1.1) rotate(6)">
      <path d="M0 0 Q -60 -30 -40 -110 Q 20 -90 8 -8 Z" fill="#81c784"/>
      <path d="M-8 -12 Q -30 -50 -34 -96" stroke="#4e9a52" stroke-width="4" fill="none" stroke-linecap="round"/>
    </g><g transform="translate(700 600) scale(1.0) rotate(-8)">
      <path d="M0 0 Q -60 -30 -40 -110 Q 20 -90 8 -8 Z" fill="#66bb6a"/>
      <path d="M-8 -12 Q -30 -50 -34 -96" stroke="#4e9a52" stroke-width="4" fill="none" stroke-linecap="round"/>
    </g><g transform="translate(650 540) scale(1.2)">
      <path d="M0 44 L 0 0" stroke="#66bb6a" stroke-width="6" stroke-linecap="round"/>
      <path d="M0 30 q -18 -4 -22 -20 q 18 2 22 20 Z" fill="#81c784"/>
      <g><path d="M-18 0 Q -20 -34 -6 -36 Q 0 -24 0 -14 Q 0 -24 6 -36 Q 20 -34 18 0 Q 0 10 -18 0 Z" fill="#f06292"/></g>
    </g><g transform="translate(90 555) scale(1.0)">
      <path d="M0 44 L 0 0" stroke="#66bb6a" stroke-width="6" stroke-linecap="round"/>
      <path d="M0 30 q -18 -4 -22 -20 q 18 2 22 20 Z" fill="#81c784"/>
      <g><path d="M-18 0 Q -20 -34 -6 -36 Q 0 -24 0 -14 Q 0 -24 6 -36 Q 20 -34 18 0 Q 0 10 -18 0 Z" fill="#ba68c8"/></g>
    </g><g transform="translate(400 470) scale(1.3) ">
      <ellipse cx="-10" cy="52" rx="80" ry="11" fill="rgba(0,0,0,0.10)"/>
      <path d="M-84 6 Q -70 -46 -10 -46 Q 44 -46 58 -6 Q 62 18 30 30 Q -10 44 -50 34 Q -80 26 -84 6 Z" fill="#7cb342"/>
      <path d="M-78 24 A 26 26 0 1 1 -106 -8 A 15 15 0 1 0 -120 8"
        fill="none" stroke="#7cb342" stroke-width="11" stroke-linecap="round"/>
      <path d="M-58 -44 l 7 -12 l 7 12 Z" fill="#7cb342" stroke="#5a8f30" stroke-width="2"/><path d="M-38 -44 l 7 -12 l 7 12 Z" fill="#7cb342" stroke="#5a8f30" stroke-width="2"/><path d="M-18 -44 l 7 -12 l 7 12 Z" fill="#7cb342" stroke="#5a8f30" stroke-width="2"/><path d="M2 -44 l 7 -12 l 7 12 Z" fill="#7cb342" stroke="#5a8f30" stroke-width="2"/>
      <ellipse cx="-40" cy="46" rx="10" ry="8" fill="#7cb342"/>
      <ellipse cx="6" cy="48" rx="10" ry="8" fill="#7cb342"/>
      <circle cx="52" cy="-16" r="30" fill="#7cb342"/>
      <circle cx="46" cy="-24" r="13" fill="#fffde7"/>
      <circle cx="48" cy="-24" r="6.5" fill="#4a3b2a"/>
      <circle cx="50" cy="-26" r="2.2" fill="#fff"/>
      <ellipse cx="64" cy="-6" rx="4.800000000000001" ry="6" fill="#4a3b2a"/><ellipse cx="52" cy="-2" rx="9" ry="5" fill="#f8bbd0"/><circle cx="-52" cy="6" r="9" fill="#f48fb1" opacity="0.9"/><circle cx="-22" cy="-14" r="11" fill="#f48fb1" opacity="0.9"/><circle cx="10" cy="2" r="9" fill="#f48fb1" opacity="0.9"/><circle cx="-36" cy="26" r="8" fill="#f48fb1" opacity="0.9"/><circle cx="2" cy="30" r="7" fill="#f48fb1" opacity="0.9"/><circle cx="36" cy="-22" r="8" fill="#f48fb1" opacity="0.9"/><circle cx="-4" cy="-30" r="7" fill="#f48fb1" opacity="0.9"/>
    </g></svg>