<svg xmlns="http://www.w3.org/2000/svg" viewBox="0 0 800 600" font-family="sans-serif"><rect width="800" height="600" fill="#fff3e0"/><rect x="0" y="430" width="800" height="170" fill="#d7a86e"/><rect x="60" y="80" width="300" height="180" rx="10" fill="#4a6b52"/><rect x="60" y="80" width="300" height="180" rx="10" fill="none" stroke="#8d6242" stroke-width="10"/><rect x="120" y="340" width="380" height="24" rx="10" fill="#a9743f"/><rect x="150" y="364" width="22" height="90" fill="#8d6242"/><rect x="450" y="364" width="22" height="90" fill="#8d6242"/><g transform="translate(310 310) scale(1.0)">
      <rect x="-52" y="-34" width="104" height="68" rx="7" fill="#fffde7" stroke="#e0cda9" stroke-width="4"/>
      <line x1="0" y1="-30" x2="0" y2="30" stroke="#e0cda9" stroke-width="4"/>
      <g stroke="#d7ccc8" stroke-width="4" stroke-linecap="round">
        <line x1="-40" y1="-16" x2="-14" y2="-16"/><line x1="-40" y1="0" x2="-14" y2="0"/>
        <line x1="14" y1="-16" x2="40" y2="-16"/>
      </g>
      <path d="M12 2 q 12 -10 26 -2 q 10 8 2 18 q -10 10 -22 4 q -12 -6 -6 -20 Z" fill="#4a3b2a"/>
      <g transform="translate(28 -2) scale(0.5)" fill="none" stroke="#b0bec5"
      stroke-width="7" stroke-linecap="round" opacity="0.85">
      <path d="M0 0 q -14 -22 0 -42 q 14 -20 0 -40"/>
      <path d="M26 6 q -12 -18 0 -36 q 12 -18 0 -34"/>
    </g>
    </g><g transform="translate(120 400) scale(0.95) ">
      <ellipse cx="0" cy="96" rx="58" ry="14" fill="rgba(0,0,0,0.08)"/>
      <path d="M-58 40 q -34 6 -44 -16 q 22 4 30 -6" fill="#ef6c00"/>
      <ellipse cx="0" cy="40" rx="62" ry="58" fill="#f57c00"/>
      <ellipse cx="0" cy="52" rx="38" ry="40" fill="#ffe0b2"/>
      <ellipse cx="-30" cy="92" rx="16" ry="12" fill="#ef6c00"/>
      <ellipse cx="30" cy="92" rx="16" ry="12" fill="#ef6c00"/>
      <path d="M-60 18 q -26 -4 -30 -26 q 20 0 32 10 Z" fill="#ffb74d"/>
      <circle cx="0" cy="-16" r="52" fill="#f57c00"/>
      <path d="M-20 -62 q -4 -22 12 -30 q 6 16 -2 28 Z" fill="#ffd54f"/>
      <path d="M14 -64 q 2 -20 18 -24 q 2 14 -8 24 Z" fill="#ffd54f"/>
      <ellipse cx="44" cy="-2" rx="18" ry="13" fill="#ffb74d"/>
      <circle cx="50" cy="-6" r="3.4" fill="#4a3b2a"/>
      <path d="M-29 -26 q 7 6.3 14 0" stroke="#4a3b2a" stroke-width="4" fill="none" stroke-linecap="round"/><path d="M15 -26 q 7 6.3 14 0" stroke="#4a3b2a" stroke-width="4" fill="none" stroke-linecap="round"/><path d="M-16 8 q 16 -12 32 0" stroke="#4a3b2a" stroke-width="5" fill="none" stroke-linecap="round"/><circle cx="34" cy="-14" r="5" fill="#81d4fa"/>
    </g><g transform="translate(430 400) scale(1.0) ">
      <ellipse cx="0" cy="66" rx="34" ry="8" fill="rgba(0,0,0,0.08)"/>
      <ellipse cx="-13" cy="-46" rx="10" ry="26" fill="#fafafa"/>
      <ellipse cx="13" cy="-46" rx="10" ry="26" fill="#fafafa"/>
      <ellipse cx="-13" cy="-46" rx="5" ry="17" fill="#f8bbd0"/>
      <ellipse cx="13" cy="-46" rx="5" ry="17" fill="#f8bbd0"/>
      <ellipse cx="0" cy="36" rx="26" ry="30" fill="#fafafa"/>
      <circle cx="0" cy="-2" r="26" fill="#fafafa"/>
      <circle cx="0" cy="2" r="4" fill="#f48fb1"/>
      <circle cx="-11" cy="-6" r="5" fill="#4a3b2a"/><circle cx="-9" cy="-8" r="1.75" fill="#fff"/><circle cx="11" cy="-6" r="5" fill="#4a3b2a"/><circle cx="13" cy="-8" r="1.75" fill="#fff"/><ellipse cx="0" cy="10" rx="4.0" ry="5" fill="#4a3b2a"/>
    </g><g transform="translate(640 400) scale(0.85) ">
      <ellipse cx="0" cy="78" rx="40" ry="9" fill="rgba(0,0,0,0.08)"/>
      <circle cx="-22" cy="-28" r="12" fill="#a1887f"/>
      <circle cx="22" cy="-28" r="12" fill="#a1887f"/>
      <ellipse cx="0" cy="42" rx="34" ry="36" fill="#a1887f"/>
      <ellipse cx="0" cy="50" rx="20" ry="24" fill="#d7ccc8"/>
      <circle cx="0" cy="-4" r="30" fill="#a1887f"/>
      <ellipse cx="0" cy="4" rx="12" ry="9" fill="#d7ccc8"/>
      <circle cx="0" cy="0" r="4.5" fill="#4a3b2a"/>
      <circle cx="-12" cy="-8" r="5" fill="#4a3b2a"/><circle cx="-10" cy="-10" r="1.75" fill="#fff"/><circle cx="12" cy="-8" r="5" fill="#4a3b2a"/><circle cx="14" cy="-10" r="1.75" fill="#fff"/><path d="M-9 10 q 9 7.2 18 0" stroke="#4a3b2a" stroke-width="5" fill="none" stroke-linecap="round"/>
    </g><g transform="translate(740 430) scale(0.85) ">
      <ellipse cx="0" cy="56" rx="28" ry="7" fill="rgba(0,0,0,0.08)"/>
      <path d="M20 30 q 42 6 34 -44 q -4 -26 -30 -22 q 18 10 12 34 q -4 20 -16 24 Z" fill="#d17f4d"/>
      <ellipse cx="0" cy="30" rx="20" ry="24" fill="#e29b6c"/>
      <circle cx="0" cy="-4" r="20" fill="#e29b6c"/>
      <path d="M-14 -18 l -4 -12 l 10 6 Z" fill="#d17f4d"/>
      <path d="M14 -18 l 4 -12 l -10 6 Z" fill="#d17f4d"/>
      <circle cx="-8" cy="-6" r="4" fill="#4a3b2a"/><circle cx="-6" cy="-8" r="1.4" fill="#fff"/><circle cx="8" cy="-6" r="4" fill="#4a3b2a"/><circle cx="10" cy="-8" r="1.4" fill="#fff"/><path d="M-6 4 q 6 4.800000000000001 12 0" stroke="#4a3b2a" stroke-width="5" fill="none" stroke-linecap="round"/>
    </g></svg>