<svg xmlns="http://www.w3.org/2000/svg" viewBox="0 0 800 600" font-family="sans-serif"><defs><linearGradient id="sky" x1="0" y1="0" x2="0" y2="1">
      <stop offset="0" stop-color="#bde3ff"/><stop offset="1" stop-color="#eaf7ff"/>
    </linearGradient></defs>
    <rect width="800" height="600" fill="url(#sky)"/><circle cx="680" cy="90" r="46" fill="#ffd54f"/><line x1="680" y1="90" x2="680" y2="90" transform="rotate(0 680 90) translate(0 -68)" stroke="#ffd54f" stroke-width="7" stroke-linecap="round" stroke-dasharray="14 100"/><line x1="680" y1="90" x2="680" y2="90" transform="rotate(45 680 90) translate(0 -68)" stroke="#ffd54f" stroke-width="7" stroke-linecap="round" stroke-dasharray="14 100"/><line x1="680" y1="90" x2="680" y2="90" transform="rotate(90 680 90) translate(0 -68)" stroke="#ffd54f" stroke-width="7" stroke-linecap="round" stroke-dasharray="14 100"/><line x1="680" y1="90" x2="680" y2="90" transform="rotate(135 680 90) translate(0 -68)" stroke="#ffd54f" stroke-width="7" stroke-linecap="round" stroke-dasharray="14 100"/><line x1="680" y1="90" x2="680" y2="90" transform="rotate(180 680 90) translate(0 -68)" stroke="#ffd54f" stroke-width="7" stroke-linecap="round" stroke-dasharray="14 100"/><line x1="680" y1="90" x2="680" y2="90" transform="rotate(225 680 90) translate(0 -68)" stroke="#ffd54f" stroke-width="7" stroke-linecap="round" stroke-dasharray="14 100"/><line x1="680" y1="90" x2="680" y2="90" transform="rotate(270 680 90) translate(0 -68)" stroke="#ffd54f" stroke-width="7" stroke-linecap="round" stroke-dasharray="14 100"/><line x1="680" y1="90" x2="680" y2="90" transform="rotate(315 680 90) translate(0 -68)" stroke="#ffd54f" stroke-width="7" stroke-linecap="round" stroke-dasharray="14 100"/><g transform="translate(180 110) scale(1.0)" fill="#ffffff" opacity="0.95">
      <ellipse cx="0" cy="0" rx="52" ry="26"/>
      <ellipse cx="-38" cy="8" rx="34" ry="20"/>
      <ellipse cx="40" cy="8" rx="36" ry="20"/>
      <ellipse cx="4" cy="-16" rx="30" ry="20"/>
    </g><rect x="0" y="430" width="800" height="170" fill="#a5d6a7"/><path d="M0 550 Q 400.0 310 800 550 L 800 600 L 0 600 Z" fill="#8fce91"/><g transform="translate(560 330) scale(1.15)">
      <rect x="-90" y="-40" width="180" height="120" rx="8" fill="#ffe0b2"/>
      <path d="M-104 -36 L 0 -110 L 104 -36 Z" fill="#ef6c00"/>
      <rect x="-24" y="10" width="48" height="70" rx="6" fill="#8d6e63"/>
      <circle cx="12" cy="46" r="4" fill="#ffd54f"/>
      <rect x="-74" y="0" width="34" height="30" rx="5" fill="#b3e5fc" stroke="#fff" stroke-width="4"/>
      <rect x="40" y="0" width="34" height="30" rx="5" fill="#b3e5fc" stroke="#fff" stroke-width="4"/>
      <rect x="-46" y="-84" width="92" height="26" rx="13" fill="#5b8def"/>
      <circle cx="-32" cy="-71" r="6" fill="#fff"/><circle cx="-12" cy="-71" r="6" fill="#fff"/>
      <circle cx="8" cy="-71" r="6" fill="#fff"/><circle cx="28" cy="-71" r="6" fill="#fff"/>
    </g><g transform="translate(80 470) scale(1.0)">
      <rect x="-9" y="-10" width="18" height="52" rx="8" fill="#8d6e63"/>
      <circle cx="0" cy="-46" r="42" fill="#66bb6a"/>
      <circle cx="-32" cy="-24" r="28" fill="#66bb6a"/>
      <circle cx="32" cy="-24" r="28" fill="#66bb6a"/>
    </g><g transform="translate(230 500) scale(1.1) ">
      <ellipse cx="10" cy="34" rx="86" ry="12" fill="rgba(0,0,0,0.08)"/>
      <path d="M-70 28 Q -70 -6 -30 -6 L 66 -6 Q 96 -6 96 12 Q 96 30 70 30 Z" fill="#aed581"/>
      <path d="M62 -2 q 6 -34 12 -44" stroke="#aed581" stroke-width="14" fill="none" stroke-linecap="round"/>
      <circle cx="74" cy="-30" r="26" fill="#aed581"/>
      <line x1="62" y1="-52" x2="56" y2="-68" stroke="#aed581" stroke-width="5" stroke-linecap="round"/>
      <line x1="86" y1="-52" x2="92" y2="-68" stroke="#aed581" stroke-width="5" stroke-linecap="round"/>
      <circle cx="56" cy="-70" r="5" fill="#aed581"/><circle cx="92" cy="-70" r="5" fill="#aed581"/>
      <circle cx="-14" cy="-26" r="52" fill="#bf8f5f"/>
      <path d="M-14 -26 m 34 0 a 34 34 0 1 1 -34 -34 a 24 24 0 1 1 -24 24 a 14 14 0 1 0 14 -14"
        fill="none" stroke="#8d6242" stroke-width="9" stroke-linecap="round"/>
      <g>
      <path d="M52 -52 a 24 24 0 0 1 46 0 Z" fill="#5b8def"/>
      <rect x="46" y="-54" width="58" height="9" rx="4.5" fill="#3f6cd6"/>
    </g><circle cx="64" cy="-34" r="5" fill="#4a3b2a"/><circle cx="66" cy="-36" r="1.75" fill="#fff"/><circle cx="84" cy="-34" r="5" fill="#4a3b2a"/><circle cx="86" cy="-36" r="1.75" fill="#fff"/><path d="M65 -18 q 9 7.2 18 0" stroke="#4a3b2a" stroke-width="5" fill="none" stroke-linecap="round"/>
    </g><g transform="translate(390 570)"><circle cx="0" cy="-8" r="6" fill="#f48fb1" transform="rotate(0 0 0) translate(0 0)"/><circle cx="0" cy="-8" r="6" fill="#f48fb1" transform="rotate(72 0 0) translate(0 0)"/><circle cx="0" cy="-8" r="6" fill="#f48fb1" transform="rotate(144 0 0) translate(0 0)"/><circle cx="0" cy="-8" r="6" fill="#f48fb1" transform="rotate(216 0 0) translate(0 0)"/><circle cx="0" cy="-8" r="6" fill="#f48fb1" transform="rotate(288 0 0) translate(0 0)"/><circle r="5" fill="#ffd54f"/></g><g transform="translate(120 580)"><circle cx="0" cy="-8" r="6" fill="#ffd54f" transform="rotate(0 0 0) translate(0 0)"/><circle cx="0" cy="-8" r="6" fill="#ffd54f" transform="rotate(72 0 0) translate(0 0)"/><circle cx="0" cy="-8" r="6" fill="#ffd54f" transform="rotate(144 0 0) translate(0 0)"/><circle cx="0" cy="-8" r="6" fill="#ffd54f" transform="rotate(216 0 0) translate(0 0)"/><circle cx="0" cy="-8" r="6" fill="#ffd54f" transform="rotate(288 0 0) translate(0 0)"/><circle r="5" fill="#ffd54f"/></g></svg>