<svg xmlns="http://www.w3.org/2000/svg" viewBox="0 0 800 600" font-family="sans-serif"><defs><linearGradient id="sky" x1="0" y1="0" x2="0" y2="1">
      <stop offset="0" stop-color="#bde3ff"/><stop offset="1" stop-color="#eaf7ff"/>
    </linearGradient></defs>
    <rect width="800" height="600" fill="url(#sky)"/><g transform="translate(200 100) scale(0.9)" fill="#ffffff" opacity="0.95">
      <ellipse cx="0" cy="0" rx="52" ry="26"/>
      <ellipse cx="-38" cy="8" rx="34" ry="20"/>
      <ellipse cx="40" cy="8" rx="36" ry="20"/>
      <ellipse cx="4" cy="-16" rx="30" ry="20"/>
    </g><g transform="translate(620 140) scale(0.7)" fill="#ffffff" opacity="0.95">
      <ellipse cx="0" cy="0" rx="52" ry="26"/>
      <ellipse cx="-38" cy="8" rx="34" ry="20"/>
      <ellipse cx="40" cy="8" rx="36" ry="20"/>
      <ellipse cx="4" cy="-16" rx="30" ry="20"/>
    </g><rect x="0" y="430" width="800" height="170" fill="#a5d6a7"/><path d="M-20 600 Q 300 480 460 520 Q 640 560 820 480" stroke="#e8d5ae" stroke-width="70" fill="none" stroke-linecap="round"/><g transform="translate(280 420) scale(1.15) ">
      <ellipse cx="0" cy="62" rx="32" ry="8" fill="rgba(0,0,0,0.08)"/>
      <path d="M28 30 q 34 4 30 -30" stroke="#8d6e63" stroke-width="9" fill="none" stroke-linecap="round"/>
      <ellipse cx="0" cy="32" rx="24" ry="28" fill="#8d6e63"/>
      <ellipse cx="0" cy="38" rx="14" ry="18" fill="#ffe0b2"/>
      <circle cx="-24" cy="-12" r="11" fill="#8d6e63"/>
      <circle cx="24" cy="-12" r="11" fill="#8d6e63"/>
      <circle cx="0" cy="-6" r="22" fill="#8d6e63"/>
      <ellipse cx="0" cy="0" rx="15" ry="12" fill="#ffe0b2"/>
      <circle cx="-8" cy="-10" r="4" fill="#4a3b2a"/><circle cx="-6" cy="-12" r="1.4" fill="#fff"/><circle cx="8" cy="-10" r="4" fill="#4a3b2a"/><circle cx="10" cy="-12" r="1.4" fill="#fff"/><path d="M-7 2 q 7 5.6000000000000005 14 0" stroke="#4a3b2a" stroke-width="5" fill="none" stroke-linecap="round"/>
      <g stroke="#b0bec5" stroke-width="5" stroke-linecap="round" opacity="0.8">
      <line x1="-66" y1="-10" x2="-96" y2="-10"/><line x1="-62" y1="8" x2="-88" y2="8"/>
      <line x1="-66" y1="26" x2="-96" y2="26"/></g>
    </g><g transform="translate(430 490) scale(1.0)">
      <ellipse cx="0" cy="0" rx="12" ry="16" fill="#8d6242"/>
      <path d="M0 -14 q 6 -10 0 -18" stroke="#66bb6a" stroke-width="4" fill="none" stroke-linecap="round"/>
    </g><g stroke="#8d6242" stroke-width="4" fill="none" stroke-linecap="round" opacity="0.7">
          <path d="M370 430 q 30 20 52 46" stroke-dasharray="2 14"/></g><g transform="translate(480 545) scale(1.3)"><path d="M-30 0 q -6 -28 -12 -44" stroke="#7cb342" stroke-width="7" fill="none" stroke-linecap="round"/><path d="M-12 0 q -2 -28 -4 -44" stroke="#7cb342" stroke-width="7" fill="none" stroke-linecap="round"/><path d="M6 0 q 3 -28 6 -44" stroke="#7cb342" stroke-width="7" fill="none" stroke-linecap="round"/><path d="M24 0 q 7 -28 14 -44" stroke="#7cb342" stroke-width="7" fill="none" stroke-linecap="round"/></g><g transform="translate(560 560) scale(1.0)"><path d="M-30 0 q -6 -28 -12 -44" stroke="#7cb342" stroke-width="7" fill="none" stroke-linecap="round"/><path d="M-12 0 q -2 -28 -4 -44" stroke="#7cb342" stroke-width="7" fill="none" stroke-linecap="round"/><path d="M6 0 q 3 -28 6 -44" stroke="#7cb342" stroke-width="7" fill="none" stroke-linecap="round"/><path d="M24 0 q 7 -28 14 -44" stroke="#7cb342" stroke-width="7" fill="none" stroke-linecap="round"/></g><g transform="translate(410 570) scale(0.9)"><path d="M-30 0 q -6 -28 -12 -44" stroke="#7cb342" stroke-width="7" fill="none" stroke-linecap="round"/><path d="M-12 0 q -2 -28 -4 -44" stroke="#7cb342" stroke-width="7" fill="none" stroke-linecap="round"/><path d="M6 0 q 3 -28 6 -44" stroke="#7cb342" stroke-width="7" fill="none" stroke-linecap="round"/><path d="M24 0 q 7 -28 14 -44" stroke="#7cb342" stroke-width="7" fill="none" stroke-linecap="round"/></g><g transform="translate(720 470) scale(0.9)">
      <rect x="-9" y="-10" width="18" height="52" rx="8" fill="#8d6e63"/>
      <circle cx="0" cy="-46" r="42" fill="#66bb6a"/>
      <circle cx="-32" cy="-24" r="28" fill="#66bb6a"/>
      <circle cx="32" cy="-24" r="28" fill="#66bb6a"/>
    </g></svg>