<svg xmlns="http://www.w3.org/2000/svg" viewBox="0 0 800 600" font-family="sans-serif"><defs><linearGradient id="sky" x1="0" y1="0" x2="0" y2="1">
      <stop offset="0" stop-color="#bde3ff"/><stop offset="1" stop-color="#eaf7ff"/>
    </linearGradient></defs>
    <rect width="800" height="600" fill="url(#sky)"/><rect x="0" y="430" width="800" height="170" fill="#a5d6a7"/><path d="M0 550 Q 400.0 310 800 550 L 800 600 L 0 600 Z" fill="#8fce91"/><circle cx="690" cy="85" r="42" fill="#ffd54f"/><line x1="690" y1="85" x2="690" y2="85" transform="rotate(0 690 85) translate(0 -64)" stroke="#ffd54f" stroke-width="7" stroke-linecap="round" stroke-dasharray="14 100"/><line x1="690" y1="85" x2="690" y2="85" transform="rotate(45 690 85) translate(0 -64)" stroke="#ffd54f" stroke-width="7" stroke-linecap="round" stroke-dasharray="14 100"/><line x1="690" y1="85" x2="690" y2="85" transform="rotate(90 690 85) translate(0 -64)" stroke="#ffd54f" stroke-width="7" stroke-linecap="round" stroke-dasharray="14 100"/><line x1="690" y1="85" x2="690" y2="85" transform="rotate(135 690 85) translate(0 -64)" stroke="#ffd54f" stroke-width="7" stroke-linecap="round" stroke-dasharray="14 100"/><line x1="690" y1="85" x2="690" y2="85" transform="rotate(180 690 85) translate(0 -64)" stroke="#ffd54f" stroke-width="7" stroke-linecap="round" stroke-dasharray="14 100"/><line x1="690" y1="85" x2="690" y2="85" transform="rotate(225 690 85) translate(0 -64)" stroke="#ffd54f" stroke-width="7" stroke-linecap="round" stroke-dasharray="14 100"/><line x1="690" y1="85" x2="690" y2="85" transform="rotate(270 690 85) translate(0 -64)" stroke="#ffd54f" stroke-width="7" stroke-linecap="round" stroke-dasharray="14 100"/><line x1="690" y1="85" x2="690" y2="85" transform="rotate(315 690 85) translate(0 -64)" stroke="#ffd54f" stroke-width="7" stroke-linecap="round" stroke-dasharray="14 100"/><g transform="translate(180 100) scale(1.0)" fill="#ffffff" opacity="0.95">
      <ellipse cx="0" cy="0" rx="52" ry="26"/>
      <ellipse cx="-38" cy="8" rx="34" ry="20"/>
      <ellipse cx="40" cy="8" rx="36" ry="20"/>
      <ellipse cx="4" cy="-16" rx="30" ry="20"/>
    </g><g transform="translate(90 480) scale(1.1)">
      <line x1="0" y1="10" x2="0" y2="-76" stroke="#8d6e63" stroke-width="7" stroke-linecap="round"/>
      <rect x="0" y="-72" width="44" height="44" fill="#fff"/>
      <rect x="0" y="-72" width="11" height="11" fill="#4a3b2a"/><rect x="0" y="-50" width="11" height="11" fill="#4a3b2a"/><rect x="22" y="-72" width="11" height="11" fill="#4a3b2a"/><rect x="22" y="-50" width="11" height="11" fill="#4a3b2a"/><rect x="11" y="-61" width="11" height="11" fill="#4a3b2a"/><rect x="11" y="-39" width="11" height="11" fill="#4a3b2a"/><rect x="33" y="-61" width="11" height="11" fill="#4a3b2a"/><rect x="33" y="-39" width="11" height="11" fill="#4a3b2a"/>
      <rect x="0" y="-72" width="44" height="44" fill="none" stroke="#4a3b2a" stroke-width="3"/>
    </g><g transform="translate(400 500) scale(1.1)">
      <rect x="-34" y="-26" width="68" height="34" rx="8" fill="#a9743f"/>
      <ellipse cx="0" cy="-26" rx="34" ry="12" fill="#d7a86e"/>
      <ellipse cx="0" cy="-26" rx="20" ry="7" fill="none" stroke="#b98c53" stroke-width="4"/>
    </g><g transform="translate(400 420) scale(1.1) ">
      <ellipse cx="0" cy="66" rx="34" ry="8" fill="rgba(0,0,0,0.08)"/>
      <ellipse cx="-13" cy="-46" rx="10" ry="26" fill="#fafafa"/>
      <ellipse cx="13" cy="-46" rx="10" ry="26" fill="#fafafa"/>
      <ellipse cx="-13" cy="-46" rx="5" ry="17" fill="#f8bbd0"/>
      <ellipse cx="13" cy="-46" rx="5" ry="17" fill="#f8bbd0"/>
      <ellipse cx="0" cy="36" rx="26" ry="30" fill="#fafafa"/>
      <circle cx="0" cy="-2" r="26" fill="#fafafa"/>
      <circle cx="0" cy="2" r="4" fill="#f48fb1"/>
      <circle cx="-11" cy="-6" r="5" fill="#4a3b2a"/><circle cx="-9" cy="-8" r="1.75" fill="#fff"/><circle cx="11" cy="-6" r="5" fill="#4a3b2a"/><circle cx="13" cy="-8" r="1.75" fill="#fff"/><path d="M-8 8 q 8 6.4 16 0" stroke="#4a3b2a" stroke-width="5" fill="none" stroke-linecap="round"/>
    </g><g stroke="#f4823c" stroke-width="5" stroke-linecap="round"><line x1="452" y1="330" x2="464" y2="310"/><line x1="472" y1="344" x2="490" y2="330"/><line x1="482" y1="366" x2="504" y2="362"/></g><g transform="translate(620 440) scale(0.9) ">
      <ellipse cx="0" cy="78" rx="40" ry="9" fill="rgba(0,0,0,0.08)"/>
      <circle cx="-22" cy="-28" r="12" fill="#a1887f"/>
      <circle cx="22" cy="-28" r="12" fill="#a1887f"/>
      <ellipse cx="0" cy="42" rx="34" ry="36" fill="#a1887f"/>
      <ellipse cx="0" cy="50" rx="20" ry="24" fill="#d7ccc8"/>
      <circle cx="0" cy="-4" r="30" fill="#a1887f"/>
      <ellipse cx="0" cy="4" rx="12" ry="9" fill="#d7ccc8"/>
      <circle cx="0" cy="0" r="4.5" fill="#4a3b2a"/>
      <circle cx="-12" cy="-8" r="5" fill="#4a3b2a"/><circle cx="-10" cy="-10" r="1.75" fill="#fff"/><circle cx="12" cy="-8" r="5" fill="#4a3b2a"/><circle cx="14" cy="-10" r="1.75" fill="#fff"/><path d="M-9 10 q 9 7.2 18 0" stroke="#4a3b2a" stroke-width="5" fill="none" stroke-linecap="round"/>
    </g><g transform="translate(720 490) scale(0.85) ">
      <ellipse cx="0" cy="56" rx="28" ry="7" fill="rgba(0,0,0,0.08)"/>
      <path d="M20 30 q 42 6 34 -44 q -4 -26 -30 -22 q 18 10 12 34 q -4 20 -16 24 Z" fill="#d17f4d"/>
      <ellipse cx="0" cy="30" rx="20" ry="24" fill="#e29b6c"/>
      <circle cx="0" cy="-4" r="20" fill="#e29b6c"/>
      <path d="M-14 -18 l -4 -12 l 10 6 Z" fill="#d17f4d"/>
      <path d="M14 -18 l 4 -12 l -10 6 Z" fill="#d17f4d"/>
      <circle cx="-8" cy="-6" r="4" fill="#4a3b2a"/><circle cx="-6" cy="-8" r="1.4" fill="#fff"/><circle cx="8" cy="-6" r="4" fill="#4a3b2a"/><circle cx="10" cy="-8" r="1.4" fill="#fff"/><path d="M-6 4 q 6 4.800000000000001 12 0" stroke="#4a3b2a" stroke-width="5" fill="none" stroke-linecap="round"/>
    </g><g transform="translate(160 470) scale(0.85) ">
      <ellipse cx="0" cy="62" rx="32" ry="8" fill="rgba(0,0,0,0.08)"/>
      <path d="M28 30 q 34 4 30 -30" stroke="#8d6e63" stroke-width="9" fill="none" stroke-linecap="round"/>
      <ellipse cx="0" cy="32" rx="24" ry="28" fill="#8d6e63"/>
      <ellipse cx="0" cy="38" rx="14" ry="18" fill="#ffe0b2"/>
      <circle cx="-24" cy="-12" r="11" fill="#8d6e63"/>
      <circle cx="24" cy="-12" r="11" fill="#8d6e63"/>
      <circle cx="0" cy="-6" r="22" fill="#8d6e63"/>
      <ellipse cx="0" cy="0" rx="15" ry="12" fill="#ffe0b2"/>
      <circle cx="-8" cy="-10" r="4" fill="#4a3b2a"/><circle cx="-6" cy="-12" r="1.4" fill="#fff"/><circle cx="8" cy="-10" r="4" fill="#4a3b2a"/><circle cx="10" cy="-12" r="1.4" fill="#fff"/><path d="M-7 2 q 7 5.6000000000000005 14 0" stroke="#4a3b2a" stroke-width="5" fill="none" stroke-linecap="round"/>
      
    </g></svg>