<svg xmlns="http://www.w3.org/2000/svg" viewBox="0 0 800 600" font-family="sans-serif"><defs><linearGradient id="sky" x1="0" y1="0" x2="0" y2="1">
      <stop offset="0" stop-color="#bde3ff"/><stop offset="1" stop-color="#eaf7ff"/>
    </linearGradient></defs>
    <rect width="800" height="600" fill="url(#sky)"/><rect x="0" y="430" width="800" height="170" fill="#a5d6a7"/><path d="M0 550 Q 400.0 310 800 550 L 800 600 L 0 600 Z" fill="#8fce91"/><circle cx="110" cy="85" r="40" fill="#ffd54f"/><line x1="110" y1="85" x2="110" y2="85" transform="rotate(0 110 85) translate(0 -62)" stroke="#ffd54f" stroke-width="7" stroke-linecap="round" stroke-dasharray="14 100"/><line x1="110" y1="85" x2="110" y2="85" transform="rotate(45 110 85) translate(0 -62)" stroke="#ffd54f" stroke-width="7" stroke-linecap="round" stroke-dasharray="14 100"/><line x1="110" y1="85" x2="110" y2="85" transform="rotate(90 110 85) translate(0 -62)" stroke="#ffd54f" stroke-width="7" stroke-linecap="round" stroke-dasharray="14 100"/><line x1="110" y1="85" x2="110" y2="85" transform="rotate(135 110 85) translate(0 -62)" stroke="#ffd54f" stroke-width="7" stroke-linecap="round" stroke-dasharray="14 100"/><line x1="110" y1="85" x2="110" y2="85" transform="rotate(180 110 85) translate(0 -62)" stroke="#ffd54f" stroke-width="7" stroke-linecap="round" stroke-dasharray="14 100"/><line x1="110" y1="85" x2="110" y2="85" transform="rotate(225 110 85) translate(0 -62)" stroke="#ffd54f" stroke-width="7" stroke-linecap="round" stroke-dasharray="14 100"/><line x1="110" y1="85" x2="110" y2="85" transform="rotate(270 110 85) translate(0 -62)" stroke="#ffd54f" stroke-width="7" stroke-linecap="round" stroke-dasharray="14 100"/><line x1="110" y1="85" x2="110" y2="85" transform="rotate(315 110 85) translate(0 -62)" stroke="#ffd54f" stroke-width="7" stroke-linecap="round" stroke-dasharray="14 100"/><g transform="translate(600 110) scale(1.0)" fill="#ffffff" opacity="0.95">
      <ellipse cx="0" cy="0" rx="52" ry="26"/>
      <ellipse cx="-38" cy="8" rx="34" ry="20"/>
      <ellipse cx="40" cy="8" rx="36" ry="20"/>
      <ellipse cx="4" cy="-16" rx="30" ry="20"/>
    </g><g transform="translate(560 470) scale(1.6)">
      <rect x="-9" y="-10" width="18" height="52" rx="8" fill="#8d6e63"/>
      <circle cx="0" cy="-46" r="42" fill="#66bb6a"/>
      <circle cx="-32" cy="-24" r="28" fill="#66bb6a"/>
      <circle cx="32" cy="-24" r="28" fill="#66bb6a"/>
    </g><g transform="translate(430 500) scale(1.05) ">
      <ellipse cx="0" cy="66" rx="34" ry="8" fill="rgba(0,0,0,0.08)"/>
      <ellipse cx="-13" cy="-46" rx="10" ry="26" fill="#fafafa"/>
      <ellipse cx="13" cy="-46" rx="10" ry="26" fill="#fafafa"/>
      <ellipse cx="-13" cy="-46" rx="5" ry="17" fill="#f8bbd0"/>
      <ellipse cx="13" cy="-46" rx="5" ry="17" fill="#f8bbd0"/>
      <ellipse cx="0" cy="36" rx="26" ry="30" fill="#fafafa"/>
      <circle cx="0" cy="-2" r="26" fill="#fafafa"/>
      <circle cx="0" cy="2" r="4" fill="#f48fb1"/>
      <path d="M-18 -6 q 7 6.3 14 0" stroke="#4a3b2a" stroke-width="4" fill="none" stroke-linecap="round"/><path d="M4 -6 q 7 6.3 14 0" stroke="#4a3b2a" stroke-width="4" fill="none" stroke-linecap="round"/><path d="M-6 8 q 6 4.800000000000001 12 0" stroke="#4a3b2a" stroke-width="5" fill="none" stroke-linecap="round"/>
    </g><g transform="translate(310 420) scale(1.1)"><path d="M0 0 L 16 0 L 0 16 L 16 16" stroke="#8fa3c8" stroke-width="5" fill="none" stroke-linecap="round" stroke-linejoin="round"/></g><g transform="translate(336 394) scale(0.77)"><path d="M0 0 L 16 0 L 0 16 L 16 16" stroke="#8fa3c8" stroke-width="5" fill="none" stroke-linecap="round" stroke-linejoin="round"/></g><g transform="translate(356 374) scale(0.55)"><path d="M0 0 L 16 0 L 0 16 L 16 16" stroke="#8fa3c8" stroke-width="5" fill="none" stroke-linecap="round" stroke-linejoin="round"/></g><g transform="translate(150 570) scale(1.1)"><path d="M-30 0 q -6 -28 -12 -44" stroke="#7cb342" stroke-width="7" fill="none" stroke-linecap="round"/><path d="M-12 0 q -2 -28 -4 -44" stroke="#7cb342" stroke-width="7" fill="none" stroke-linecap="round"/><path d="M6 0 q 3 -28 6 -44" stroke="#7cb342" stroke-width="7" fill="none" stroke-linecap="round"/><path d="M24 0 q 7 -28 14 -44" stroke="#7cb342" stroke-width="7" fill="none" stroke-linecap="round"/></g><g transform="translate(220 560)"><circle cx="0" cy="-8" r="6" fill="#f48fb1" transform="rotate(0 0 0) translate(0 0)"/><circle cx="0" cy="-8" r="6" fill="#f48fb1" transform="rotate(72 0 0) translate(0 0)"/><circle cx="0" cy="-8" r="6" fill="#f48fb1" transform="rotate(144 0 0) translate(0 0)"/><circle cx="0" cy="-8" r="6" fill="#f48fb1" transform="rotate(216 0 0) translate(0 0)"/><circle cx="0" cy="-8" r="6" fill="#f48fb1" transform="rotate(288 0 0) translate(0 0)"/><circle r="5" fill="#ffd54f"/></g></svg>