<svg xmlns="http://www.w3.org/2000/svg" viewBox="0 0 800 600" font-family="sans-serif"><defs><linearGradient id="sky" x1="0" y1="0" x2="0" y2="1">
      <stop offset="0" stop-color="#ffdf9e"/><stop offset="1" stop-color="#fff3d6"/>
    </linearGradient></defs>
    <rect width="800" height="600" fill="url(#sky)"/><rect x="0" y="440" width="800" height="160" fill="#d9c07f"/><path d="M0 530 Q 400.0 390 800 530 L 800 600 L 0 600 Z" fill="#cbb271"/><circle cx="680" cy="90" r="44" fill="#ff9f43"/><line x1="680" y1="90" x2="680" y2="90" transform="rotate(0 680 90) translate(0 -66)" stroke="#ff9f43" stroke-width="7" stroke-linecap="round" stroke-dasharray="14 100"/><line x1="680" y1="90" x2="680" y2="90" transform="rotate(45 680 90) translate(0 -66)" stroke="#ff9f43" stroke-width="7" stroke-linecap="round" stroke-dasharray="14 100"/><line x1="680" y1="90" x2="680" y2="90" transform="rotate(90 680 90) translate(0 -66)" stroke="#ff9f43" stroke-width="7" stroke-linecap="round" stroke-dasharray="14 100"/><line x1="680" y1="90" x2="680" y2="90" transform="rotate(135 680 90) translate(0 -66)" stroke="#ff9f43" stroke-width="7" stroke-linecap="round" stroke-dasharray="14 100"/><line x1="680" y1="90" x2="680" y2="90" transform="rotate(180 680 90) translate(0 -66)" stroke="#ff9f43" stroke-width="7" stroke-linecap="round" stroke-dasharray="14 100"/><line x1="680" y1="90" x2="680" y2="90" transform="rotate(225 680 90) translate(0 -66)" stroke="#ff9f43" stroke-width="7" stroke-linecap="round" stroke-dasharray="14 100"/><line x1="680" y1="90" x2="680" y2="90" transform="rotate(270 680 90) translate(0 -66)" stroke="#ff9f43" stroke-width="7" stroke-linecap="round" stroke-dasharray="14 100"/><line x1="680" y1="90" x2="680" y2="90" transform="rotate(315 680 90) translate(0 -66)" stroke="#ff9f43" stroke-width="7" stroke-linecap="round" stroke-dasharray="14 100"/><g transform="translate(500 410) scale(1.15) rotate(-18)">
      <clipPath id="bt500410"><path d="M-26 -18 L -26 88 Q -26 100 -14 100 L 14 100 Q 26 100 26 88 L 26 -18 L 12 -30 L 12 -52 L -12 -52 L -12 -30 Z"/></clipPath>
      <path d="M-26 -18 L -26 88 Q -26 100 -14 100 L 14 100 Q 26 100 26 88 L 26 -18 L 12 -30 L 12 -52 L -12 -52 L -12 -30 Z" fill="#e3f2fd" opacity="0.55"/>
      <g clip-path="url(#bt500410)">
        <rect x="-26" y="53" width="52" height="49" fill="#64b5f6" opacity="0.85"/>
        
      </g>
      <path d="M-26 -18 L -26 88 Q -26 100 -14 100 L 14 100 Q 26 100 26 88 L 26 -18 L 12 -30 L 12 -52 L -12 -52 L -12 -30 Z" fill="none" stroke="#90caf9" stroke-width="5"/>
    </g><g transform="translate(330 450) scale(1.15) scale(-1 1)">
      <ellipse cx="0" cy="58" rx="40" ry="9" fill="rgba(0,0,0,0.10)"/>
      <path d="M-34 26 q -18 4 -26 16 q 20 4 32 -4 Z" fill="#263238"/>
      <ellipse cx="0" cy="10" rx="36" ry="34" fill="#37474f"/>
      <ellipse cx="4" cy="20" rx="20" ry="18" fill="#546e7a"/>
      <circle cx="8" cy="-22" r="26" fill="#37474f"/>
      <circle cx="10" cy="-26" r="10" fill="#fff"/><circle cx="12" cy="-26" r="5" fill="#4a3b2a"/><path d="M30 -18 l 26 4 l -26 4 Z" fill="#f5b81d"/><path d="M30 -8 l 22 6 l -22 2 Z" fill="#f5b81d"/><path d="M-30 4 q -22 6 -30 24 q 26 2 38 -10 Z" fill="#263238"/><line x1="-10" y1="42" x2="-10" y2="58" stroke="#f5b81d" stroke-width="5" stroke-linecap="round"/><line x1="10" y1="42" x2="10" y2="58" stroke="#f5b81d" stroke-width="5" stroke-linecap="round"/>
    </g><g stroke="#e05e4e" stroke-width="6" stroke-linecap="round"><line x1="590" y1="270" x2="590" y2="300"/><circle cx="590" cy="322" r="4" fill="#e05e4e"/></g></svg>