<svg xmlns="http://www.w3.org/2000/svg" viewBox="0 0 800 600" font-family="sans-serif"><defs><linearGradient id="sky" x1="0" y1="0" x2="0" y2="1">
      <stop offset="0" stop-color="#ffdf9e"/><stop offset="1" stop-color="#fff3d6"/>
    </linearGradient></defs>
    <rect width="800" height="600" fill="url(#sky)"/><rect x="0" y="440" width="800" height="160" fill="#d9c07f"/><path d="M0 530 Q 400.0 390 800 530 L 800 600 L 0 600 Z" fill="#cbb271"/><circle cx="120" cy="90" r="40" fill="#ff9f43"/><line x1="120" y1="90" x2="120" y2="90" transform="rotate(0 120 90) translate(0 -62)" stroke="#ff9f43" stroke-width="7" stroke-linecap="round" stroke-dasharray="14 100"/><line x1="120" y1="90" x2="120" y2="90" transform="rotate(45 120 90) translate(0 -62)" stroke="#ff9f43" stroke-width="7" stroke-linecap="round" stroke-dasharray="14 100"/><line x1="120" y1="90" x2="120" y2="90" transform="rotate(90 120 90) translate(0 -62)" stroke="#ff9f43" stroke-width="7" stroke-linecap="round" stroke-dasharray="14 100"/><line x1="120" y1="90" x2="120" y2="90" transform="rotate(135 120 90) translate(0 -62)" stroke="#ff9f43" stroke-width="7" stroke-linecap="round" stroke-dasharray="14 100"/><line x1="120" y1="90" x2="120" y2="90" transform="rotate(180 120 90) translate(0 -62)" stroke="#ff9f43" stroke-width="7" stroke-linecap="round" stroke-dasharray="14 100"/><line x1="120" y1="90" x2="120" y2="90" transform="rotate(225 120 90) translate(0 -62)" stroke="#ff9f43" stroke-width="7" stroke-linecap="round" stroke-dasharray="14 100"/><line x1="120" y1="90" x2="120" y2="90" transform="rotate(270 120 90) translate(0 -62)" stroke="#ff9f43" stroke-width="7" stroke-linecap="round" stroke-dasharray="14 100"/><line x1="120" y1="90" x2="120" y2="90" transform="rotate(315 120 90) translate(0 -62)" stroke="#ff9f43" stroke-width="7" stroke-linecap="round" stroke-dasharray="14 100"/><g transform="translate(480 410) scale(1.25) rotate(0)">
      <clipPath id="bt480410"><path d="M-26 -18 L -26 88 Q -26 100 -14 100 L 14 100 Q 26 100 26 88 L 26 -18 L 12 -30 L 12 -52 L -12 -52 L -12 -30 Z"/></clipPath>
      <path d="M-26 -18 L -26 88 Q -26 100 -14 100 L 14 100 Q 26 100 26 88 L 26 -18 L 12 -30 L 12 -52 L -12 -52 L -12 -30 Z" fill="#e3f2fd" opacity="0.55"/>
      <g clip-path="url(#bt480410)">
        <rect x="-26" y="47" width="52" height="55" fill="#64b5f6" opacity="0.85"/>
        <ellipse cx="-12" cy="92" rx="8" ry="6" fill="#90a4ae" stroke="#78909c" stroke-width="2"/><ellipse cx="4" cy="94" rx="8" ry="6" fill="#90a4ae" stroke="#78909c" stroke-width="2"/><ellipse cx="14" cy="88" rx="8" ry="6" fill="#90a4ae" stroke="#78909c" stroke-width="2"/>
      </g>
      <path d="M-26 -18 L -26 88 Q -26 100 -14 100 L 14 100 Q 26 100 26 88 L 26 -18 L 12 -30 L 12 -52 L -12 -52 L -12 -30 Z" fill="none" stroke="#90caf9" stroke-width="5"/>
    </g><g transform="translate(330 300) scale(1.05) ">
      <ellipse cx="0" cy="58" rx="40" ry="9" fill="rgba(0,0,0,0.10)"/>
      <path d="M-34 26 q -18 4 -26 16 q 20 4 32 -4 Z" fill="#263238"/>
      <ellipse cx="0" cy="10" rx="36" ry="34" fill="#37474f"/>
      <ellipse cx="4" cy="20" rx="20" ry="18" fill="#546e7a"/>
      <circle cx="8" cy="-22" r="26" fill="#37474f"/>
      <circle cx="10" cy="-26" r="10" fill="#fff"/><circle cx="12" cy="-26" r="5" fill="#4a3b2a"/><path d="M30 -14 l 26 5 l -26 7 Z" fill="#f5b81d"/><path d="M-24 -8 q -46 -30 -50 -62 q 40 12 54 44 Z" fill="#263238"/><path d="M20 -4 q 44 -26 48 -58 q -38 12 -52 40 Z" fill="#263238"/>
    </g><g transform="translate(455 330) scale(1.0)"><ellipse rx="10" ry="7" fill="#b0bec5" stroke="#90a4ae" stroke-width="2"/></g><path d="M462 350 L 470 380" stroke="#90a4ae" stroke-width="4" stroke-dasharray="3 8" stroke-linecap="round"/><g transform="translate(600 565) scale(1.1)"><ellipse rx="10" ry="7" fill="#b0bec5" stroke="#90a4ae" stroke-width="2"/></g><g transform="translate(660 585) scale(1.0)"><ellipse rx="10" ry="7" fill="#b0bec5" stroke="#90a4ae" stroke-width="2"/></g></svg>